<svg width="40" height="40" viewBox="0 0 40 40" fill="none" xmlns="http://www.w3.org/2000/svg">
<path d="M20.001 0C8.95045 0 3.29018e-06 9.1766 3.29018e-06 20.5064C-0.00240494 24.811 1.31727 29.0071 3.77181 32.4994C6.22636 35.9918 9.69115 38.6031 13.6747 39.9628C14.6747 40.1412 15.0508 39.526 15.0508 38.9867C15.0508 38.5007 15.0248 36.8869 15.0248 35.1684C10.0005 36.1179 8.70044 33.9134 8.30042 32.7589C8.07441 32.1684 7.10036 30.3494 6.25031 29.8614C5.55028 29.4779 4.55023 28.5285 6.22431 28.5039C7.80039 28.4772 8.92445 29.9906 9.30047 30.6058C11.1006 33.7063 13.9747 32.8348 15.1248 32.2975C15.3008 30.9646 15.8248 30.0685 16.4008 29.5558C11.9506 29.0432 7.30037 27.2735 7.30037 19.4298C7.30037 17.1987 8.07441 15.3552 9.35047 13.9177C9.15046 13.405 8.45042 11.3031 9.55048 8.48349C9.55048 8.48349 11.2246 7.94622 15.0508 10.5874C16.679 10.1241 18.3613 9.89093 20.051 9.89433C21.7511 9.89433 23.4512 10.124 25.0513 10.5854C28.8774 7.91956 30.5515 8.48554 30.5515 8.48554C31.6516 11.3052 30.9515 13.4071 30.7515 13.9197C32.0256 15.3552 32.8016 17.1741 32.8016 19.4298C32.8016 27.3001 28.1274 29.0432 23.6752 29.5558C24.4012 30.1956 25.0272 31.426 25.0272 33.3495C25.0272 36.0912 25.0012 38.2957 25.0012 38.9888C25.0012 39.526 25.3773 40.1658 26.3773 39.9608C30.3472 38.5861 33.7967 35.9697 36.2404 32.4799C38.6841 28.9901 39.999 24.8024 40 20.5064C40 9.1766 31.0496 0 19.999 0H20.001Z" fill="black"/>
</svg>
