<svg width="34" height="34" viewBox="0 0 34 34" fill="none" xmlns="http://www.w3.org/2000/svg">
<path d="M17 12.8666C16.1825 12.8666 15.3834 13.109 14.7036 13.5632C14.0239 14.0174 13.4941 14.6629 13.1813 15.4182C12.8684 16.1734 12.7866 17.0045 12.9461 17.8063C13.1056 18.6081 13.4992 19.3446 14.0773 19.9226C14.6553 20.5007 15.3918 20.8943 16.1936 21.0538C16.9954 21.2133 17.8265 21.1315 18.5818 20.8186C19.337 20.5058 19.9826 19.976 20.4367 19.2963C20.8909 18.6166 21.1333 17.8174 21.1333 16.9999C21.1333 16.4571 21.0264 15.9196 20.8187 15.4182C20.611 14.9167 20.3065 14.461 19.9227 14.0772C19.5389 13.6934 19.0832 13.3889 18.5818 13.1812C18.0803 12.9735 17.5428 12.8666 17 12.8666ZM33.55 8.78325C33.5412 7.49618 33.3042 6.22087 32.85 5.01659C32.5155 4.13535 31.9979 3.33507 31.3314 2.66856C30.6648 2.00205 29.8646 1.48445 28.9833 1.14992C27.779 0.695692 26.5037 0.458687 25.2167 0.449919C23.0667 0.333252 22.4333 0.333252 17 0.333252C11.5667 0.333252 10.9333 0.333252 8.78333 0.449919C7.49626 0.458687 6.22095 0.695692 5.01666 1.14992C4.13543 1.48445 3.33515 2.00205 2.66864 2.66856C2.00212 3.33507 1.48452 4.13535 1.14999 5.01659C0.695768 6.22087 0.458763 7.49618 0.449995 8.78325C0.333328 10.9333 0.333328 11.5666 0.333328 16.9999C0.333328 22.4333 0.333328 23.0666 0.449995 25.2166C0.467935 26.5082 0.704619 27.7874 1.14999 28.9999C1.48304 29.8771 2.00021 30.6728 2.66666 31.3333C3.33032 32.0038 4.13231 32.5214 5.01666 32.8499C6.22095 33.3041 7.49626 33.5412 8.78333 33.5499C10.9333 33.6666 11.5667 33.6666 17 33.6666C22.4333 33.6666 23.0667 33.6666 25.2167 33.5499C26.5037 33.5412 27.779 33.3041 28.9833 32.8499C29.8677 32.5214 30.6697 32.0038 31.3333 31.3333C31.9998 30.6728 32.5169 29.8771 32.85 28.9999C33.3038 27.7897 33.5407 26.509 33.55 25.2166C33.6667 23.0666 33.6667 22.4333 33.6667 16.9999C33.6667 11.5666 33.6667 10.9333 33.55 8.78325ZM29.3167 22.1166C29.2632 23.1451 29.0437 24.1582 28.6667 25.1166C28.3431 25.9161 27.8621 26.6423 27.2522 27.2522C26.6424 27.862 25.9161 28.343 25.1167 28.6666C24.1492 29.0226 23.1304 29.2196 22.1 29.2499H11.9C10.8695 29.2196 9.85081 29.0226 8.88333 28.6666C8.05683 28.3594 7.31046 27.8695 6.7 27.2333C6.09611 26.6353 5.62973 25.913 5.33333 25.1166C4.97592 24.1501 4.78434 23.1302 4.76666 22.0999V11.8999C4.78434 10.8696 4.97592 9.84973 5.33333 8.88325C5.64046 8.05676 6.13045 7.31038 6.76666 6.69992C7.36722 6.09929 8.08877 5.63341 8.88333 5.33325C9.85081 4.97726 10.8695 4.78027 11.9 4.74992H22.1C23.1304 4.78027 24.1492 4.97726 25.1167 5.33325C25.9432 5.64039 26.6895 6.13038 27.3 6.76659C27.9039 7.3645 28.3703 8.08681 28.6667 8.88325C29.0227 9.85073 29.2196 10.8695 29.25 11.8999V16.9999C29.25 20.4333 29.3667 20.7833 29.3167 22.0999V22.1166ZM26.65 9.71659C26.4516 9.17823 26.1387 8.68932 25.733 8.28361C25.3273 7.87789 24.8384 7.56502 24.3 7.36658C23.5608 7.11035 22.7822 6.98624 22 6.99992H12C11.2138 7.0076 10.4351 7.15431 9.69999 7.43325C9.16988 7.62268 8.68615 7.92277 8.28097 8.31359C7.87579 8.7044 7.55843 9.17698 7.34999 9.69992C7.10796 10.4422 6.98971 11.2192 6.99999 11.9999V21.9999C7.01652 22.7852 7.16294 23.5624 7.43333 24.2999C7.63177 24.8383 7.94464 25.3272 8.35035 25.7329C8.75607 26.1386 9.24497 26.4515 9.78333 26.6499C10.4944 26.9114 11.2427 27.0577 12 27.0833H22C22.7862 27.0756 23.5649 26.9289 24.3 26.6499C24.8384 26.4515 25.3273 26.1386 25.733 25.7329C26.1387 25.3272 26.4516 24.8383 26.65 24.2999C26.9289 23.5648 27.0756 22.7861 27.0833 21.9999V11.9999C27.0838 11.2129 26.9368 10.4328 26.65 9.69992V9.71659ZM17 23.3666C16.1647 23.3666 15.3376 23.2018 14.5661 22.8816C13.7946 22.5615 13.0938 22.0922 12.504 21.5008C11.9141 20.9094 11.4467 20.2074 11.1286 19.4351C10.8104 18.6627 10.6478 17.8352 10.65 16.9999C10.65 15.74 11.0238 14.5084 11.7241 13.4611C12.4245 12.4137 13.4198 11.5977 14.5841 11.1163C15.7484 10.6349 17.0294 10.5098 18.2649 10.7568C19.5003 11.0038 20.6347 11.6119 21.5245 12.5039C22.4142 13.396 23.0192 14.532 23.263 15.7681C23.5068 17.0042 23.3783 18.2848 22.8939 19.4479C22.4095 20.611 21.5908 21.6041 20.5417 22.3017C19.4925 22.9993 18.2599 23.3699 17 23.3666ZM23.6667 11.8833C23.2982 11.8443 22.9573 11.6703 22.7095 11.3949C22.4617 11.1195 22.3246 10.7621 22.3246 10.3916C22.3246 10.0211 22.4617 9.66372 22.7095 9.3883C22.9573 9.11288 23.2982 8.93892 23.6667 8.89992C24.0351 8.93892 24.3761 9.11288 24.6239 9.3883C24.8717 9.66372 25.0088 10.0211 25.0088 10.3916C25.0088 10.7621 24.8717 11.1195 24.6239 11.3949C24.3761 11.6703 24.0351 11.8443 23.6667 11.8833Z" fill="black"/>
</svg>
