<svg width="40" height="40" viewBox="0 0 40 40" fill="none" xmlns="http://www.w3.org/2000/svg">
<path d="M28.55 23.7251C28.075 23.5001 25.8 22.3751 25.375 22.2001C24.95 22.0251 24.65 21.9751 24.325 22.4501C24 22.9251 23.125 23.9501 22.85 24.2751C22.575 24.6001 22.325 24.6251 21.85 24.2751C20.4856 23.7276 19.2256 22.9496 18.125 21.9751C17.1286 21.037 16.2851 19.9489 15.625 18.7501C15.35 18.3001 15.625 18.0501 15.825 17.8001C16.025 17.5501 16.275 17.2751 16.525 17.0001C16.7078 16.7623 16.859 16.5018 16.975 16.2251C17.037 16.0964 17.0692 15.9554 17.0692 15.8126C17.0692 15.6698 17.037 15.5288 16.975 15.4001C16.975 15.1751 15.925 12.9001 15.525 11.9751C15.125 11.0501 14.775 11.1751 14.5 11.1751H13.5C13.0236 11.1937 12.574 11.4005 12.25 11.7501C11.7268 12.2493 11.3125 12.8511 11.0329 13.5179C10.7532 14.1847 10.6144 14.9021 10.625 15.6251C10.7528 17.4 11.4055 19.0969 12.5 20.5001C14.5084 23.4837 17.2561 25.8955 20.475 27.5001C21.575 27.9751 22.425 28.2501 23.1 28.4751C24.0478 28.7616 25.0497 28.8215 26.025 28.6501C26.6727 28.5187 27.2865 28.2556 27.8284 27.8772C28.3702 27.4987 28.8286 27.013 29.175 26.4501C29.4632 25.7549 29.5582 24.9948 29.45 24.2501C29.325 24.0751 29.025 23.9501 28.55 23.7251Z" fill="black"/>
<path d="M33.225 6.6999C31.496 4.95461 29.4351 3.57322 27.1637 2.63719C24.8924 1.70116 22.4566 1.22946 20 1.2499C16.7457 1.26693 13.5529 2.13748 10.7403 3.77461C7.9278 5.41173 5.59401 7.75813 3.97207 10.5794C2.35013 13.4008 1.4968 16.5983 1.49731 19.8526C1.49782 23.1069 2.35215 26.3041 3.97498 29.1249L1.47498 38.7499L11.325 36.2499C14.0481 37.7317 17.0998 38.5054 20.2 38.4999H20C23.6948 38.524 27.313 37.4471 30.3933 35.4065C33.4736 33.366 35.8764 30.4542 37.2952 27.0426C38.714 23.631 39.0846 19.8742 38.3597 16.2511C37.6348 12.628 35.8472 9.30296 33.225 6.6999ZM20 35.2999C17.2264 35.3021 14.5043 34.5503 12.125 33.1249L11.575 32.7999L5.72498 34.3249L7.27498 28.6249L6.92498 28.0499C4.92837 24.8345 4.1815 20.998 4.8261 17.2684C5.47069 13.5389 7.46189 10.1756 10.4219 7.81687C13.3819 5.45811 17.1048 4.26795 20.8841 4.4722C24.6635 4.67645 28.2364 6.26089 30.925 8.9249C32.3663 10.3546 33.5087 12.0569 34.2856 13.9326C35.0625 15.8082 35.4583 17.8197 35.45 19.8499C35.4434 23.9455 33.8135 27.8714 30.9175 30.7674C28.0215 33.6634 24.0955 35.2933 20 35.2999Z" fill="black"/>
</svg>
